<?xml version="1.0" encoding="UTF-8"?>
<svg width="29px" height="29px" viewBox="0 0 29 29" version="1.1" xmlns="http://www.w3.org/2000/svg" xmlns:xlink="http://www.w3.org/1999/xlink">
    <!-- Generator: Sketch 50.2 (55047) - http://www.bohemiancoding.com/sketch -->
    <title>email-84</title>
    <desc>Created with Sketch.</desc>
    <defs></defs>
    <g id="Page-1" stroke="none" stroke-width="1" fill="none" fill-rule="evenodd">
        <g id="Landing-page" transform="translate(-1315.000000, -350.000000)">
            <g id="Hero-section" transform="translate(100.000000, 56.000000)">
                <g id="Social" transform="translate(1200.000000, 146.000000)">
                    <g id="Group-5-Copy" transform="translate(0.000000, 133.000000)">
                        <g id="email-84">
                            <polygon id="Polygon" fill="#000000" transform="translate(29.500000, 29.500000) rotate(45.000000) translate(-29.500000, -29.500000) " points="29.5 9 50 29.5 29.5 50 9 29.5"></polygon>
                            <path d="M36.375,23 L22.625,23 C22.25,23 22,23.24 22,23.6 L22,34.4 C22,34.76 22.25,35 22.625,35 L36.375,35 C36.75,35 37,34.76 37,34.4 L37,23.6 C37,23.24 36.75,23 36.375,23 Z M34.9375,25.88 L29.9375,30.08 C29.8125,30.14 29.625,30.2 29.5,30.2 C29.375,30.2 29.1875,30.14 29.0625,30.08 L24.0625,25.88 C23.8125,25.64 23.75,25.28 24,25.04 C24.25,24.8 24.625,24.74 24.875,24.98 L29.4375,28.82 L34,24.98 C34.25,24.74 34.625,24.8 34.875,25.04 C35.1875,25.28 35.1875,25.64 34.9375,25.88 Z" id="Shape" fill="#FFFFFF" fill-rule="nonzero"></path>
                        </g>
                    </g>
                </g>
            </g>
        </g>
    </g>
</svg>