<?xml version="1.0" encoding="UTF-8"?>
<svg width="10px" height="10px" viewBox="0 0 10 10" version="1.1" xmlns="http://www.w3.org/2000/svg" xmlns:xlink="http://www.w3.org/1999/xlink">
    <!-- Generator: Sketch 49.3 (51167) - http://www.bohemiancoding.com/sketch -->
    <title>Group 4</title>
    <desc>Created with Sketch.</desc>
    <defs></defs>
    <g id="Page-1" stroke="none" stroke-width="1" fill="none" fill-rule="evenodd">
        <g id="Volitve-2" transform="translate(-709.000000, -768.000000)">
            <g id="Group-8" transform="translate(691.000000, 763.000000)">
                <g id="Group-4" transform="translate(16.500000, 3.000000)">
                    <polygon id="Polygon-Copy-3" fill="#000000" transform="translate(6.499090, 7.000000) rotate(45.000000) translate(-6.499090, -7.000000) " points="6.49909026 0 13.5407569 7 6.49909026 14 -0.542576405 7"></polygon>
                    <path d="M5.63031693,9.69230769 L5.63031693,7.59230769 L4.875,7.59230769 L4.875,6.62307692 L5.63031693,6.62307692 L5.63031693,5.94622754 C5.63031693,5.20893208 6.11942161,4.84615385 6.80862305,4.84615385 C7.13875703,4.84615385 7.42249219,4.86960923 7.5051793,4.88009469 L7.5051793,5.65061215 L7.02718047,5.65081892 C6.6523556,5.65082054 6.56770833,5.82079615 6.56770833,6.07022285 L6.56770833,6.62307692 L7.58333333,6.62307692 L7.24479167,7.59230769 L6.56770833,7.59230769 L6.56770833,9.69230769 L5.63031693,9.69230769 Z" id="Shape" fill="#FFFFFF" fill-rule="nonzero"></path>
                </g>
            </g>
        </g>
    </g>
</svg>