<?xml version="1.0" encoding="UTF-8"?>
<svg width="47px" height="47px" viewBox="0 0 47 47" version="1.1" xmlns="http://www.w3.org/2000/svg" xmlns:xlink="http://www.w3.org/1999/xlink">
    <!-- Generator: Sketch 49.3 (51167) - http://www.bohemiancoding.com/sketch -->
    <title>Combined Shape</title>
    <desc>Created with Sketch.</desc>
    <defs></defs>
    <g id="Page-1" stroke="none" stroke-width="1" fill="none" fill-rule="evenodd">
        <g id="Volitve-2" transform="translate(-697.000000, -42.000000)" fill="#FFFFFF">
            <g id="Group-9" transform="translate(655.000000, -140.000000)">
                <g id="Group" transform="translate(81.419056, 192.077078) scale(1, -1) rotate(-330.000000) translate(-81.419056, -192.077078) translate(8.919056, 155.577078)">
                    <path d="M52.7175357,22.4025942 C52.549811,22.3947866 52.3810776,22.3908393 52.2114223,22.3908393 C51.9675363,22.3908393 51.7255556,22.3989964 51.4857379,22.4150525 L49.1078194,9.87918755 L55.0914702,9.87918755 L52.7175357,22.4025942 Z M55.3754621,22.8662132 C54.9790994,22.7437364 54.5728984,22.6436661 54.1583388,22.5674821 L55.1022758,9.89287143 L60.8820386,11.4415542 L55.3754621,22.8662132 Z M57.8505555,23.9951222 C57.488121,23.7700251 57.1112472,23.5659793 56.7216426,23.3846932 L60.8889344,11.4575685 L66.0709279,14.4493939 L57.8505555,23.9951222 Z M59.9802198,25.7316159 C59.6771745,25.4119537 59.35461,25.1109808 59.0144347,24.8306058 L66.0734439,14.4666473 L70.304524,18.6977273 L59.9802198,25.7316159 Z M61.6157067,27.9791356 C61.3971636,27.5781767 61.1537251,27.1927411 60.887468,26.8249055 L70.3024887,18.715044 L73.2943141,23.8970376 L61.6157067,27.9791356 Z M62.623537,30.6040942 C62.513557,30.1425034 62.3736781,29.6925081 62.2060603,29.2562683 L73.2878663,23.9132375 L74.8365491,29.6930003 L62.623537,30.6040942 Z M62.9094725,33.4317112 C62.912946,33.3196041 62.9146956,33.2070627 62.9146956,33.0941127 C62.9146956,32.7169911 62.8951917,32.344425 62.8571376,31.9773679 L74.8261282,29.7069794 L74.8261282,35.6906301 L62.9094725,33.4317112 Z M62.4377688,36.2631735 C62.5841235,35.7903665 62.6985908,35.3035456 62.7786576,34.8052238 L74.8124443,35.7014357 L73.2637615,41.4811985 L62.4377688,36.2631735 Z M61.214843,38.8842979 C61.4905915,38.456409 61.7366692,38.0075946 61.9501675,37.5407632 L73.2477472,41.4880943 L70.2559218,46.6700879 L61.214843,38.8842979 Z M59.3235426,41.0928771 C59.7114738,40.7476989 60.0741268,40.3747254 60.4083769,39.9770813 L70.2386684,46.6726039 L66.0075884,50.9036839 L59.3235426,41.0928771 Z M56.901901,42.7175921 C57.37491,42.4866162 57.8283656,42.2217939 58.2591143,41.9262787 L65.9902717,50.9016487 L60.8082782,53.893474 L56.901901,42.7175921 Z M54.1312841,43.6256789 C54.6532074,43.531156 55.1619561,43.3987878 55.6545851,43.2315192 L60.7920783,53.8870263 L55.0123155,55.435709 L54.1312841,43.6256789 Z M51.2273298,43.7527495 C51.551402,43.7822907 51.8796493,43.797386 52.2114223,43.797386 C52.4054424,43.797386 52.5982567,43.7922236 52.7897355,43.7820286 L54.9983364,55.4252881 L49.0146856,55.4252881 L51.2273298,43.7527495 Z M48.4103856,43.1028152 C48.8874354,43.2840864 49.3808045,43.4322307 49.8876829,43.5444383 L49.00388,55.4116042 L43.2241172,53.8629215 L48.4103856,43.1028152 Z M45.8909378,41.73281 C46.2961327,42.0297731 46.7229949,42.2989161 47.168711,42.5374258 L43.2172214,53.8469072 L38.0352279,50.8550818 L45.8909378,41.73281 Z M43.8418708,39.7663917 C44.1481164,40.1500341 44.4801887,40.5121537 44.8354546,40.8501175 L38.0327119,50.8378284 L33.8016318,46.6067484 L43.8418708,39.7663917 Z M42.3919333,37.359775 C42.5826838,37.7982723 42.801946,38.2215046 43.047379,38.6271312 L33.8036671,46.5894317 L30.8118417,41.4074381 L42.3919333,37.359775 Z M41.6262683,34.6896652 C41.6950382,35.1497826 41.7930941,35.600328 41.9184787,36.039344 L30.8182895,41.3912382 L29.2696067,35.6114754 L41.6262683,34.6896652 Z M41.5692838,31.9433946 C41.5288755,32.3214298 41.508149,32.7053508 41.508149,33.0941127 C41.508149,33.1554172 41.5086644,33.2166013 41.5096911,33.2776609 L29.2800276,35.5974963 L29.2800276,29.6138456 L41.5692838,31.9433946 Z M42.200868,29.2979529 C42.0485058,29.6995166 41.9196122,30.1126314 41.8158618,30.5356225 L29.2937115,29.6030399 L30.8423943,23.8232772 L42.200868,29.2979529 Z M43.4689916,26.91765 C43.2263223,27.2605093 43.0033145,27.6182701 42.8016102,27.9892903 L30.8584086,23.8163814 L33.850234,18.6343878 L43.4689916,26.91765 Z M45.278478,24.9394264 C44.9639556,25.207088 44.6651133,25.4926233 44.3835219,25.7944617 L33.8674874,18.6318718 L38.0985674,14.4007918 L45.278478,24.9394264 Z M47.5142935,23.4738833 C47.1460587,23.6540136 46.7896925,23.8546635 46.4466845,24.0743434 L38.1158841,14.402827 L43.2978776,11.4110016 L47.5142935,23.4738833 Z M50.0443649,22.6103378 C49.6416864,22.6931392 49.2472621,22.7985571 48.8624779,22.9252057 L43.3140775,11.4174494 L49.0938403,9.86876664 L50.0443649,22.6103378 Z" id="Combined-Shape"></path>
                </g>
            </g>
        </g>
    </g>
</svg>