<?xml version="1.0" encoding="UTF-8"?>
<svg width="10px" height="10px" viewBox="0 0 10 10" version="1.1" xmlns="http://www.w3.org/2000/svg" xmlns:xlink="http://www.w3.org/1999/xlink">
    <!-- Generator: Sketch 49.3 (51167) - http://www.bohemiancoding.com/sketch -->
    <title>Group 2</title>
    <desc>Created with Sketch.</desc>
    <defs></defs>
    <g id="Page-1" stroke="none" stroke-width="1" fill="none" fill-rule="evenodd">
        <g id="Volitve-2" transform="translate(-722.000000, -768.000000)">
            <g id="Group-8" transform="translate(691.000000, 763.000000)">
                <g id="Group-2" transform="translate(29.500000, 3.000000)">
                    <polygon id="Polygon-Copy-4" fill="#000000" transform="translate(6.499090, 7.000000) rotate(45.000000) translate(-6.499090, -7.000000) " points="6.49909026 0 13.5407569 7 6.49909026 14 -0.542576405 7"></polygon>
                    <path d="M9.20833333,4.93726986 L8.73238738,5.35246607 C8.69122371,5.3808685 8.67081857,5.42775559 8.67944289,5.47412235 L8.67944289,8.52587765 C8.67081857,8.57224441 8.69122371,8.6191315 8.73238738,8.64753393 L9.19696829,9.06273014 L9.19696829,9.15384615 L6.86020392,9.15384615 L6.86020392,9.06273014 L7.34141661,8.63693317 C7.38881717,8.59377296 7.38881717,8.58115301 7.38881717,8.5152769 L7.38881717,6.04883468 L6.05079088,9.1434978 L5.87005893,9.1434978 L4.31193882,6.04883468 L4.31193882,8.12203938 C4.29897248,8.20922444 4.33076308,8.29699528 4.39814686,8.36005156 L5.02405598,9.05137219 L5.02405598,9.1424882 L3.25,9.1424882 L3.25,9.05137219 L3.87590913,8.36005156 C3.9428418,8.29691182 3.97279067,8.20854297 3.95657323,8.12203938 L3.95657323,5.72424968 C3.96379025,5.65783333 3.93590476,5.59224794 3.88145305,5.54757044 L3.32428859,4.93726986 L3.32428859,4.84615385 L5.05177561,4.84615385 L6.38702993,7.5127484 L7.56123323,4.84615385 L9.20805614,4.84615385 L9.20833333,4.93726986 Z" id="Shape" fill="#FFFFFF" fill-rule="nonzero"></path>
                </g>
            </g>
        </g>
    </g>
</svg>