<?xml version="1.0" encoding="UTF-8"?>
<svg width="10px" height="10px" viewBox="0 0 10 10" version="1.1" xmlns="http://www.w3.org/2000/svg" xmlns:xlink="http://www.w3.org/1999/xlink">
    <!-- Generator: Sketch 49.3 (51167) - http://www.bohemiancoding.com/sketch -->
    <title>Group 5</title>
    <desc>Created with Sketch.</desc>
    <defs></defs>
    <g id="Page-1" stroke="none" stroke-width="1" fill="none" fill-rule="evenodd">
        <g id="Volitve-2" transform="translate(-696.000000, -768.000000)">
            <g id="Group-8" transform="translate(691.000000, 763.000000)">
                <g id="Group-5" transform="translate(0.500000, 0.000000)">
                    <polygon id="Polygon" fill="#000000" transform="translate(9.500000, 10.000000) rotate(45.000000) translate(-9.500000, -10.000000) " points="9.5 3 16.5416667 10 9.5 17 2.45833333 10"></polygon>
                    <path d="M12.50625,8.45339085 C12.2835086,8.54565061 12.0607671,8.61945842 11.8009021,8.63791038 C12.0607671,8.49029475 12.246385,8.25041936 12.3391939,7.97364007 C12.0978907,8.12125569 11.8380257,8.21351546 11.5595989,8.26887132 C11.3368575,8.02899593 11.0213071,7.8813803 10.687195,7.8813803 C10.0189707,7.8813803 9.46211708,8.41648694 9.46211708,9.0992092 C9.46211708,9.19146897 9.48067887,9.28372873 9.49924065,9.3759885 C8.47834242,9.32063264 7.58737669,8.84088186 6.97483775,8.10280374 C6.86346703,8.28732327 6.80778167,8.49029475 6.80778167,8.71171819 C6.80778167,9.13611311 7.0305231,9.50515217 7.34607347,9.72657561 C7.14189382,9.72657561 6.95627596,9.67121975 6.78921989,9.57895998 C6.78921989,9.57895998 6.78921989,9.59741193 6.78921989,9.59741193 C6.78921989,10.1878744 7.21614097,10.6676252 7.77299455,10.7783369 C7.66162383,10.7967889 7.5688149,10.8152408 7.45744418,10.8152408 C7.38319704,10.8152408 7.3089499,10.8152408 7.23470275,10.7967889 C7.38319704,11.2765397 7.84724169,11.6271268 8.3669717,11.6455787 C7.95861241,11.9777139 7.42032061,12.1622334 6.84490524,12.1622334 C6.75209631,12.1622334 6.6407256,12.1622334 6.54791667,12.1437815 C7.10477025,12.4759166 7.75443276,12.6788881 8.44121885,12.6788881 C10.687195,12.6788881 11.9122728,10.8336928 11.9122728,9.22837287 C11.9122728,9.17301701 11.9122728,9.11766116 11.9122728,9.08075725 C12.1350143,8.89623772 12.3391939,8.69326624 12.50625,8.45339085 Z" id="Shape" fill="#FFFFFF" fill-rule="nonzero"></path>
                </g>
            </g>
        </g>
    </g>
</svg>